<svg viewBox="0 0 620 200" xmlns="http://www.w3.org/2000/svg">
  <defs>
    <style>
      .word { font-family: 'Poppins ExtraBold','Poppins',sans-serif; font-weight: 800; }
      .tag  { font-family: 'Poppins Medium','Poppins',sans-serif; font-weight: 500; }
    </style>
  </defs>

  <g transform="translate(-152,-18)">
    <path d="M194,124 L246,84 L314,128" fill="none" stroke="#D1B496" stroke-width="15" stroke-linecap="round" stroke-linejoin="round"/>
    <path d="M314,128 L314,220" fill="none" stroke="#D1B496" stroke-width="15" stroke-linecap="round" stroke-linejoin="round"/>
    <line x1="246" y1="96" x2="246" y2="128" stroke="#241F20" stroke-width="3"/>
    <path d="M222,128 a24,24 0 0 1 48,0 z" fill="#241F20"/>
    <circle cx="246" cy="141" r="6" fill="#CA8469"/>
    <line x1="228" y1="160" x2="296" y2="160" stroke="#241F20" stroke-width="9" stroke-linecap="round"/>
    <line x1="274" y1="160" x2="274" y2="188" stroke="#241F20" stroke-width="9" stroke-linecap="round"/>
    <line x1="264" y1="188" x2="284" y2="188" stroke="#241F20" stroke-width="9" stroke-linecap="round"/>
    <path d="M180,217 L180,152 C180,137 192,126 207,126 C222,126 234,137 234,152 L234,176 C252,174 268,176 276,182 C288,186 293,196 293,208 L293,217 L271,217 L271,208 C271,202 266,198 259,198 L201,198 C195,198 190,203 190,209 L190,217 Z" fill="#CA8469"/>
  </g>

  <line x1="230" y1="70" x2="230" y2="150" stroke="#D1B496" stroke-width="2"/>

  <text x="264" y="105" class="word" font-size="34" letter-spacing="0.3" fill="#241F20">CR FURNITURE</text>
  <text x="264" y="140" class="word" font-size="34" letter-spacing="0.3" fill="#241F20">&amp; INTERIOR</text>
  <text x="266" y="168" class="tag" font-size="17" letter-spacing="1.5" fill="#B8875B">DAMAK, NEPAL</text>
</svg>
